<?xml version="1.0" standalone="no"?>
<!DOCTYPE svg PUBLIC "-//W3C//DTD SVG 20010904//EN"
 "http://www.w3.org/TR/2001/REC-SVG-20010904/DTD/svg10.dtd">
<svg version="1.0" xmlns="http://www.w3.org/2000/svg"
 width="1200.000000pt" height="766.000000pt" viewBox="0 0 1200.000000 766.000000"
 preserveAspectRatio="xMidYMid meet">

<g transform="translate(0.000000,766.000000) scale(0.100000,-0.100000)"
fill="#000000" stroke="none">
<path d="M9250 7646 c-12 -11 -25 -12 -66 -4 -27 6 -61 8 -75 5 -23 -6 -49
-42 -49 -67 0 -16 38 -21 58 -9 16 10 31 10 76 -1 49 -11 58 -11 80 4 22 14
45 61 35 70 -15 13 -47 14 -59 2z"/>
<path d="M4510 7611 c-36 -52 -36 -51 9 -51 28 0 54 9 81 26 22 15 39 28 38
29 -2 2 -26 10 -53 18 l-51 15 -24 -37z"/>
<path d="M2080 7330 l0 -200 55 0 54 0 3 112 3 112 51 -78 52 -78 53 78 54 79
3 -112 3 -113 54 0 55 0 0 200 0 200 -59 0 -59 0 -48 -75 c-27 -41 -52 -75
-55 -75 -4 0 -28 34 -54 75 l-46 75 -60 0 -59 0 0 -200z"/>
<path d="M2620 7330 l0 -200 55 0 55 0 0 200 0 200 -55 0 -55 0 0 -200z"/>
<path d="M2830 7330 l0 -200 55 0 54 0 3 107 3 106 85 -106 85 -106 53 -1 52
0 0 200 0 200 -55 0 -54 0 -3 -106 -3 -106 -88 106 -87 106 -50 0 -50 0 0
-200z"/>
<path d="M3320 7330 l0 -200 55 0 55 0 0 200 0 200 -55 0 -55 0 0 -200z"/>
<path d="M3583 7512 c-45 -24 -64 -55 -65 -102 -1 -71 32 -98 165 -135 44 -12
57 -20 57 -35 0 -37 -82 -38 -146 0 l-32 18 -33 -35 -34 -34 23 -20 c31 -24
114 -49 167 -49 121 0 201 83 165 171 -17 40 -45 58 -138 83 -63 18 -77 25
-77 41 0 27 54 32 113 9 l44 -17 24 29 c13 16 23 35 24 41 1 43 -195 70 -257
35z"/>
<path d="M3910 7480 l0 -50 65 0 65 0 0 -150 0 -150 55 0 55 0 0 150 0 150 66
0 65 0 -3 48 -3 47 -182 3 -183 2 0 -50z"/>
<path d="M4350 7330 l0 -200 165 0 165 0 0 45 0 45 -110 0 -110 0 0 35 0 35
100 0 100 0 0 40 0 40 -100 0 -100 0 0 30 0 30 110 0 110 0 0 50 0 50 -165 0
-165 0 0 -200z"/>
<path d="M4760 7330 l0 -200 60 0 60 0 0 60 c0 57 1 60 25 60 19 0 34 -14 65
-60 l41 -60 65 0 c73 0 72 -5 12 78 l-39 52 41 39 c37 35 40 42 40 89 0 43 -5
57 -30 85 -39 45 -89 57 -229 57 l-111 0 0 -200z m244 84 c38 -37 8 -73 -67
-81 l-57 -6 0 52 0 51 54 0 c36 0 60 -5 70 -16z"/>
<path d="M5210 7330 l0 -200 60 0 60 0 0 200 0 200 -60 0 -60 0 0 -200z"/>
<path d="M5510 7498 c-92 -56 -125 -158 -81 -253 80 -177 358 -161 420 24 21
65 6 133 -42 188 -44 50 -98 73 -177 73 -57 0 -73 -5 -120 -32z m182 -80 c10
-5 25 -22 33 -38 62 -120 -92 -221 -177 -116 -22 27 -23 94 -2 125 32 44 93
57 146 29z"/>
<path d="M6120 7330 l0 -200 108 0 c135 0 176 11 228 64 89 88 78 224 -24 293
-44 29 -115 43 -222 43 l-90 0 0 -200z m253 60 c25 -28 28 -38 24 -74 -4 -26
-15 -48 -30 -62 -25 -22 -108 -41 -127 -29 -12 7 -14 188 -2 199 4 4 29 6 56
3 40 -4 55 -11 79 -37z"/>
<path d="M6721 7488 c-10 -24 -48 -110 -85 -192 -36 -82 -66 -152 -66 -157 0
-5 26 -9 58 -9 57 0 58 0 71 35 l12 35 83 0 82 0 13 -35 c12 -35 13 -35 72
-35 32 0 59 4 59 8 0 4 -38 93 -84 197 l-83 190 -57 3 -56 3 -19 -43z m118
-200 c1 -5 -19 -8 -44 -8 -25 0 -45 4 -45 9 0 5 10 30 22 57 l21 49 23 -50
c13 -27 23 -53 23 -57z"/>
<path d="M7390 7519 c-157 -63 -178 -276 -35 -364 43 -27 57 -30 129 -30 65 0
91 5 129 23 l47 24 0 94 0 94 -95 0 -95 0 0 -40 0 -40 46 0 c43 0 45 -1 42
-27 -5 -47 -88 -54 -142 -12 -32 25 -49 81 -35 117 28 73 92 98 161 63 l43
-21 32 38 c17 20 29 41 26 46 -3 4 -24 17 -47 27 -45 21 -163 25 -206 8z"/>
<path d="M7750 7330 l0 -200 170 0 170 0 0 45 0 45 -116 0 -115 0 3 33 3 32
98 3 97 3 0 39 0 40 -100 0 -100 0 0 30 0 30 110 0 110 0 0 50 0 50 -165 0
-165 0 0 -200z"/>
<path d="M8220 7512 c-45 -24 -74 -80 -66 -127 9 -48 52 -79 135 -100 78 -19
101 -36 81 -60 -18 -22 -68 -18 -126 9 l-51 24 -28 -36 -28 -35 22 -18 c31
-25 114 -49 171 -49 105 0 185 79 161 160 -14 47 -39 64 -132 90 -80 22 -95
31 -86 54 8 21 66 21 114 1 47 -20 44 -20 72 21 24 35 24 36 5 47 -68 41 -185
50 -244 19z"/>
<path d="M8550 7480 l0 -50 60 0 60 0 0 -150 0 -150 60 0 60 0 0 150 0 150 60
0 60 0 0 50 0 50 -180 0 -180 0 0 -50z"/>
<path d="M9117 7503 c-8 -15 -26 -55 -40 -88 -14 -33 -48 -111 -76 -172 l-50
-113 60 0 c59 0 60 1 75 35 l14 35 80 0 80 0 17 -35 c16 -34 18 -35 76 -35 51
0 58 2 53 18 -3 9 -42 98 -85 197 l-80 180 -55 3 c-51 3 -56 1 -69 -25z m106
-215 c-6 -11 -83 -10 -83 1 0 5 10 31 21 58 l22 48 22 -50 c13 -27 21 -53 18
-57z"/>
<path d="M9585 7511 c-52 -23 -101 -80 -115 -133 -54 -200 205 -342 369 -201
108 92 88 263 -38 330 -56 29 -156 31 -216 4z m139 -85 c45 -19 66 -52 66
-103 0 -59 -31 -93 -93 -100 -43 -5 -49 -3 -82 30 -26 26 -35 43 -35 69 0 47
33 95 72 107 18 5 34 10 36 10 1 1 18 -5 36 -13z"/>
<path d="M4190 6880 c-15 -29 -2 -45 20 -25 13 12 23 13 44 5 45 -17 72 -12
84 15 9 20 9 25 -1 25 -7 0 -18 -5 -24 -11 -9 -9 -20 -9 -44 0 -46 16 -67 14
-79 -9z"/>
<path d="M9370 6870 c-16 -23 -18 -30 -7 -30 20 0 68 40 62 51 -11 17 -34 9
-55 -21z"/>
<path d="M520 6625 l0 -185 135 0 c128 0 135 1 135 20 0 19 -7 20 -115 20
l-115 0 0 65 0 65 100 0 c81 0 100 3 100 15 0 11 -20 15 -97 17 l-98 3 -3 63
-3 62 116 0 c106 0 116 2 113 18 -3 15 -19 17 -136 20 l-132 3 0 -186z"/>
<path d="M1010 6626 l0 -186 79 0 c127 0 196 35 226 115 34 88 0 186 -79 227
-30 16 -65 23 -133 26 l-93 4 0 -186z m199 126 c54 -27 76 -65 76 -127 0 -95
-60 -145 -172 -145 l-63 0 0 145 0 145 63 0 c39 0 74 -6 96 -18z"/>
<path d="M1465 6633 c-44 -97 -81 -180 -83 -185 -2 -4 6 -8 17 -8 15 0 26 13
42 50 l21 50 99 0 99 0 25 -50 c17 -35 31 -50 45 -50 19 0 19 2 -4 53 -13 28
-50 112 -82 184 -81 181 -78 182 -179 -44z m171 -40 c6 -23 5 -23 -75 -23 -45
0 -81 2 -81 5 0 2 19 45 42 96 l42 92 33 -74 c19 -40 36 -83 39 -96z"/>
<path d="M1967 6803 c-4 -3 -7 -87 -7 -185 0 -171 1 -178 20 -178 19 0 20 7
20 185 0 148 -3 185 -13 185 -8 0 -17 -3 -20 -7z"/>
<path d="M2100 6625 c0 -178 1 -185 20 -185 18 0 20 8 22 150 l3 150 118 -150
c65 -83 125 -150 133 -150 12 0 14 30 14 185 0 178 -1 185 -20 185 -19 0 -20
-7 -20 -147 l0 -146 -116 146 c-156 199 -154 199 -154 -38z"/>
<path d="M2592 6793 c-109 -53 -135 -210 -49 -301 55 -59 154 -72 228 -30 119
67 121 255 3 324 -49 29 -132 32 -182 7z m148 -35 c51 -27 80 -74 80 -131 0
-144 -156 -208 -248 -103 -84 96 -20 248 108 255 9 1 36 -9 60 -21z"/>
<path d="M2940 6743 c124 -291 127 -298 147 -301 16 -2 30 23 92 170 40 95 76
179 79 186 3 10 -2 13 -17 10 -19 -2 -33 -29 -83 -148 -33 -80 -63 -149 -67
-153 -5 -4 -37 62 -71 147 -56 137 -67 156 -86 156 l-23 0 29 -67z"/>
<path d="M3382 6632 c-45 -98 -82 -182 -82 -185 0 -4 8 -7 19 -7 13 0 25 15
39 50 l21 50 101 0 101 0 21 -50 c14 -35 26 -50 39 -50 11 0 19 4 19 9 0 4
-36 86 -79 182 -59 131 -84 175 -98 177 -17 3 -33 -26 -101 -176z m141 36 c21
-46 37 -86 37 -90 0 -5 -36 -8 -80 -8 -44 0 -80 3 -80 8 0 13 74 172 80 172 4
0 23 -37 43 -82z"/>
<path d="M3805 6786 c-133 -80 -108 -305 38 -341 31 -8 32 -12 12 -39 -19 -25
-19 -32 0 -40 10 -4 21 7 34 33 17 32 27 39 58 45 48 7 103 49 87 66 -8 8 -24
4 -60 -15 -55 -30 -105 -30 -150 0 -86 56 -86 204 2 261 39 26 116 24 155 -5
24 -18 33 -20 45 -10 12 9 12 15 2 27 -39 47 -159 56 -223 18z"/>
<path d="M4165 6638 c-42 -95 -80 -178 -82 -185 -3 -8 3 -13 14 -13 14 0 27
15 43 50 l23 50 100 0 99 0 21 -50 c16 -39 26 -50 43 -50 21 0 17 12 -60 183
-64 141 -87 183 -103 185 -17 3 -31 -22 -98 -170z m175 -59 c0 -5 -36 -9 -81
-9 -93 0 -90 -9 -32 117 l35 76 39 -88 c21 -48 39 -91 39 -96z"/>
<path d="M4605 6799 c-33 -19 -76 -62 -91 -91 -22 -43 -18 -136 9 -183 57
-101 219 -118 296 -30 74 85 62 215 -25 282 -30 22 -49 28 -103 31 -38 1 -75
-2 -86 -9z m154 -48 c48 -34 65 -68 65 -126 0 -58 -17 -91 -65 -128 -58 -42
-147 -26 -192 34 -25 34 -33 106 -17 153 12 36 58 80 95 89 32 8 88 -2 114
-22z"/>
<path d="M5097 6803 c-4 -3 -7 -87 -7 -185 l0 -178 135 0 c128 0 135 1 135 20
0 19 -7 20 -115 20 l-116 0 3 63 3 62 103 3 c80 2 102 6 102 17 0 11 -22 15
-102 17 l-103 3 -3 63 -3 62 116 0 c108 0 115 1 115 20 0 19 -7 20 -128 20
-71 0 -132 -3 -135 -7z"/>
<path d="M5440 6625 c0 -158 2 -185 15 -185 13 0 15 23 15 146 0 169 -2 168
80 44 29 -44 56 -80 59 -80 4 0 33 38 65 85 32 47 62 87 67 91 5 3 9 -56 9
-140 0 -140 1 -146 20 -146 20 0 20 5 18 183 -3 173 -4 182 -23 185 -15 2 -35
-21 -87 -99 l-66 -102 -68 102 c-100 150 -104 146 -104 -84z"/>
<path d="M6068 6794 c-33 -18 -48 -43 -48 -82 0 -50 33 -80 117 -104 87 -25
114 -52 95 -94 -23 -48 -85 -56 -157 -19 -49 24 -65 25 -65 0 0 -23 81 -55
143 -55 48 0 61 4 89 29 27 24 33 36 33 69 0 55 -24 78 -109 103 -80 24 -106
42 -106 74 0 54 96 80 155 41 26 -17 45 -14 45 8 0 38 -138 60 -192 30z"/>
<path d="M6350 6625 l0 -185 135 0 c128 0 135 1 135 20 0 19 -7 20 -115 20
l-116 0 3 63 3 62 98 3 c76 2 97 6 97 17 0 11 -21 15 -97 17 l-98 3 -3 63 -3
62 116 0 c108 0 115 1 115 20 0 19 -7 20 -135 20 l-135 0 0 -185z"/>
<path d="M6694 6797 c-2 -7 -3 -89 -2 -182 3 -152 5 -170 21 -173 15 -3 17 5
17 67 l0 71 58 0 57 -1 50 -69 c36 -50 56 -69 73 -70 12 0 22 2 22 5 0 3 -22
35 -50 72 -48 63 -54 83 -26 83 7 0 25 12 40 26 54 55 25 152 -52 174 -55 15
-201 13 -208 -3z m220 -48 c36 -29 36 -80 -1 -109 -23 -18 -38 -20 -102 -18
l-76 3 -3 73 -3 72 79 0 c65 0 84 -4 106 -21z"/>
<path d="M7040 6798 c1 -7 34 -89 74 -183 56 -131 77 -171 93 -173 16 -2 31
24 96 177 42 99 77 182 77 185 0 3 -9 6 -19 6 -14 0 -29 -24 -62 -102 -83
-201 -90 -214 -98 -198 -4 8 -34 79 -66 158 -45 109 -63 142 -77 142 -10 0
-18 -6 -18 -12z"/>
<path d="M7450 6625 c0 -178 1 -185 20 -185 19 0 20 7 20 185 0 178 -1 185
-20 185 -19 0 -20 -7 -20 -185z"/>
<path d="M7668 6790 c-66 -36 -105 -120 -92 -201 9 -57 60 -120 112 -139 40
-15 41 -17 27 -35 -19 -26 -19 -41 0 -49 10 -4 21 7 34 33 17 32 27 39 58 45
21 3 52 17 68 30 24 20 28 27 17 38 -10 10 -16 10 -30 0 -62 -45 -127 -51
-179 -17 -85 56 -84 204 3 261 39 26 116 24 155 -5 27 -20 33 -21 46 -8 13 13
11 17 -18 38 -47 33 -149 38 -201 9z"/>
<path d="M8055 6794 c-45 -23 -66 -45 -86 -89 -43 -92 -5 -205 84 -252 37 -19
127 -19 164 0 66 35 103 97 103 172 0 75 -37 137 -102 171 -36 19 -126 18
-163 -2z m145 -36 c123 -64 99 -259 -35 -284 -98 -18 -190 80 -171 181 12 62
82 123 141 125 12 0 41 -10 65 -22z"/>
<path d="M8429 6782 c-28 -25 -34 -37 -34 -72 0 -35 6 -46 30 -66 16 -12 52
-28 80 -35 56 -13 86 -27 97 -43 27 -39 -19 -96 -77 -96 -18 0 -53 11 -78 24
-37 20 -48 22 -56 12 -8 -10 -8 -16 1 -23 75 -60 214 -56 248 6 5 11 10 35 10
54 0 43 -41 81 -103 97 -98 24 -131 55 -107 100 22 42 86 48 151 14 23 -11 29
-11 39 1 19 22 -33 49 -105 53 -58 4 -65 2 -96 -26z"/>
<path d="M8877 6803 c-4 -3 -7 -87 -7 -185 0 -171 1 -178 20 -178 18 0 20 7
20 65 l0 65 63 1 c84 0 126 17 155 59 44 65 11 148 -67 170 -40 11 -174 14
-184 3z m186 -44 c25 -11 47 -47 47 -75 0 -9 -13 -29 -29 -45 -27 -27 -35 -29
-100 -29 l-71 0 0 80 0 80 65 0 c35 0 75 -5 88 -11z"/>
<path d="M9210 6679 c0 -148 12 -188 64 -220 42 -26 130 -25 173 1 54 33 63
62 63 215 0 125 -2 136 -17 133 -16 -3 -19 -20 -23 -140 -5 -127 -7 -138 -29
-162 -31 -33 -78 -42 -124 -23 -56 24 -67 56 -67 202 0 118 -1 125 -20 125
-19 0 -20 -7 -20 -131z"/>
<path d="M9600 6625 l0 -185 103 0 c116 0 163 16 185 63 18 38 7 84 -26 104
-15 9 -29 18 -31 20 -2 1 8 16 23 33 30 36 33 66 10 99 -26 37 -74 51 -174 51
l-90 0 0 -185z m211 132 c23 -17 32 -53 19 -76 -14 -26 -72 -43 -135 -39 l-50
3 -3 63 -3 62 78 0 c46 -1 85 -6 94 -13z m30 -176 c25 -31 24 -47 -6 -76 -22
-23 -32 -25 -110 -25 l-85 0 0 66 0 66 91 -4 c81 -4 94 -7 110 -27z"/>
<path d="M9970 6625 l0 -185 125 0 c118 0 125 1 125 20 0 19 -7 20 -105 20
l-105 0 0 165 c0 158 -1 165 -20 165 -19 0 -20 -7 -20 -185z"/>
<path d="M10290 6625 c0 -178 1 -185 20 -185 19 0 20 7 20 185 0 178 -1 185
-20 185 -19 0 -20 -7 -20 -185z"/>
<path d="M10511 6793 c-101 -50 -130 -203 -55 -293 37 -44 78 -61 140 -61 78
0 178 59 131 77 -9 3 -30 -5 -47 -18 -63 -46 -150 -27 -203 44 -27 37 -27 129
0 166 52 70 138 88 202 43 25 -18 35 -20 46 -11 19 16 12 26 -35 50 -48 25
-132 26 -179 3z"/>
<path d="M10895 6796 c-82 -36 -128 -155 -94 -243 13 -35 55 -80 92 -100 16
-8 53 -14 82 -14 109 0 185 76 185 186 0 110 -76 186 -187 185 -26 -1 -61 -7
-78 -14z m141 -37 c99 -47 112 -197 23 -260 -71 -50 -170 -24 -208 55 -26 53
-26 89 0 142 14 30 32 48 62 63 52 26 70 26 123 0z"/>
<path d="M11265 6777 c-69 -69 -37 -135 79 -167 38 -11 77 -27 87 -36 42 -38
11 -92 -58 -101 -29 -3 -50 2 -87 22 -37 20 -51 23 -57 14 -11 -18 -4 -26 41
-49 46 -24 129 -26 169 -6 15 8 32 26 39 41 32 71 -5 121 -111 150 -81 22
-107 49 -89 91 21 45 93 54 151 17 21 -13 25 -13 38 0 14 13 12 17 -12 33 -17
11 -53 20 -91 22 -62 4 -65 3 -99 -31z"/>
<path d="M5436 5589 l-549 -219 -212 0 -213 0 -6 35 c-14 71 -106 100 -163 51
l-28 -24 -5 -157 -5 -158 -80 -31 -80 -31 83 -3 c74 -3 82 -5 82 -22 0 -20
-13 -20 -969 -20 l-968 0 -6 42 c-14 105 -137 103 -137 -2 l0 -40 -100 0 -100
0 -280 130 c-154 72 -284 130 -289 130 -4 0 -135 -58 -289 -130 l-281 -130
-90 0 -91 0 0 40 c0 105 -123 107 -137 2 l-6 -42 -64 0 -64 0 3 -87 c3 -83 4
-87 27 -93 22 -5 17 -9 -35 -33 -55 -25 -57 -27 -26 -27 l32 0 0 -70 c0 -56 3
-70 15 -70 9 0 33 -28 55 -62 l40 -61 0 -334 0 -333 -55 0 -55 0 0 -75 0 -75
55 0 55 0 -2 -372 -3 -373 -22 -3 c-17 -3 -23 -11 -25 -40 -3 -32 -7 -37 -30
-40 l-28 -3 0 -250 0 -249 -130 0 -130 0 0 -45 0 -45 1855 0 1855 0 0 -25 0
-25 110 0 110 0 0 180 0 179 150 90 c123 73 150 86 150 70 0 -19 30 -19 1639
-19 l1639 0 -5 21 c-6 21 31 2 232 -121 l60 -37 3 -171 c1 -95 -1 -172 -6
-172 -4 0 -21 14 -37 30 l-29 30 -1856 0 -1857 0 -39 -35 -39 -34 1876 -1
c1032 0 1951 -3 2042 -7 l167 -6 0 26 0 27 1855 0 1855 0 0 45 0 45 -130 0
-130 0 0 249 0 250 -27 3 c-24 3 -28 8 -31 40 -2 29 -8 37 -25 40 l-22 3 -3
373 -2 372 55 0 55 0 0 74 0 75 -52 3 -53 3 -2 330 -3 330 40 63 c22 34 47 62
55 62 12 0 15 15 15 70 l0 70 33 0 c30 1 28 3 -28 30 -50 24 -56 28 -32 29
l27 1 0 90 0 90 -65 0 -65 0 0 34 c0 45 -33 86 -70 86 -37 0 -70 -41 -70 -86
l0 -34 -90 0 -89 0 -280 130 c-154 72 -284 130 -289 130 -4 0 -134 -58 -288
-130 l-279 -130 -102 0 -103 0 0 40 c0 47 -27 80 -65 80 -38 0 -65 -33 -65
-80 l0 -40 -975 0 c-962 0 -975 0 -975 20 0 17 8 19 83 22 l82 3 -80 31 -80
31 -5 156 c-5 147 -6 157 -29 181 -19 20 -34 26 -67 26 -52 0 -83 -24 -93 -70
l-7 -35 -214 -3 -215 -2 -550 220 c-302 121 -554 220 -560 219 -5 0 -257 -99
-559 -220z m1234 -116 c344 -135 690 -272 770 -304 l145 -58 -1590 0 -1590 -1
635 251 c349 137 707 278 795 313 131 53 164 62 185 54 14 -5 306 -120 650
-255z m-2268 -40 c10 -9 18 -27 18 -40 0 -22 -4 -23 -60 -23 -55 0 -60 2 -60
22 0 50 63 76 102 41z m3271 5 c9 -7 18 -24 19 -38 3 -24 1 -25 -59 -28 -59
-3 -63 -2 -63 19 0 49 62 77 103 47z m-3113 -198 c-124 -50 -233 -92 -242 -96
-16 -5 -18 4 -18 90 l0 96 243 -1 242 0 -225 -89z m3130 -5 c0 -52 -2 -95 -5
-95 -7 0 -459 181 -464 186 -2 2 102 4 232 4 l237 0 0 -95z m-5867 -237 l401
-183 -407 -3 c-224 -1 -590 -1 -813 0 l-407 3 399 182 c220 100 405 182 412
183 8 0 194 -82 415 -182z m9171 0 l401 -183 -408 -3 c-224 -1 -589 -1 -812 0
l-405 3 397 182 c219 100 404 182 412 182 8 1 195 -81 415 -181z m-10374 51
c0 -37 -2 -39 -30 -39 -28 0 -30 3 -30 35 0 21 6 37 17 43 28 16 43 3 43 -39z
m1660 -4 c0 -32 -2 -35 -30 -35 -28 0 -30 2 -30 39 0 42 13 54 43 39 11 -6 17
-20 17 -43z m7484 39 c9 -8 16 -29 16 -45 0 -27 -3 -29 -35 -29 -32 0 -35 2
-35 29 0 24 21 61 35 61 2 0 11 -7 19 -16z m1654 4 c7 -7 12 -27 12 -45 0 -30
-3 -33 -30 -33 -27 0 -30 3 -30 33 0 30 14 57 30 57 3 0 11 -5 18 -12z m-3728
-123 l0 -85 -1692 2 -1693 3 -3 83 -3 82 1696 0 1695 0 0 -85z m-7055 -51
c-94 -45 -117 -53 -160 -51 l-50 2 -3 53 -3 52 163 -1 163 -1 -110 -54z m3625
1 l0 -55 -979 0 -978 0 -114 54 -114 55 1093 0 1092 1 0 -55z m5548 0 l-118
-55 -980 0 -980 0 0 55 0 55 1098 0 1097 0 -117 -55z m1762 0 l0 -55 -49 0
c-38 0 -72 12 -162 54 l-114 55 163 0 162 1 0 -55z m-7310 -105 c0 -20 -7 -20
-907 -20 -875 1 -909 2 -943 20 -35 19 -27 19 908 20 935 0 942 0 942 -20z
m134 -20 c-22 -34 -32 -40 -60 -40 -33 0 -34 1 -34 40 l0 40 60 0 60 0 -26
-40z m505 -10 l31 -50 0 -295 0 -295 -30 0 -30 0 0 213 -1 212 -86 60 c-48 33
-94 64 -104 69 -13 6 -40 -9 -113 -60 l-96 -67 0 -214 0 -213 -35 0 -35 0 0
297 0 296 31 49 31 48 203 0 203 0 31 -50z m164 10 c-24 -38 -29 -41 -66 -38
-34 3 -44 9 -64 41 l-23 37 90 0 90 0 -27 -40z m505 -14 l32 -54 0 -291 0
-291 -35 0 -35 0 0 228 c0 208 -2 230 -20 259 -31 51 -91 77 -180 77 -89 0
-149 -26 -180 -77 -18 -29 -20 -51 -20 -259 l0 -228 -30 0 -30 0 0 297 0 296
31 49 31 48 202 0 201 -1 33 -53z m160 14 c-21 -36 -27 -40 -63 -40 -35 0 -43
5 -62 35 -13 19 -23 37 -23 40 0 3 38 5 85 5 l86 0 -23 -40z m501 -10 l31 -50
0 -295 0 -295 -30 0 -30 0 -2 212 -3 213 -95 67 c-52 38 -98 68 -103 68 -4 0
-50 -30 -102 -67 l-95 -66 0 -214 0 -213 -35 0 -35 0 0 292 0 292 32 53 32 53
202 0 202 0 31 -50z m181 44 c0 -4 -10 -22 -21 -41 -19 -31 -25 -34 -62 -31
-34 3 -44 9 -64 41 l-23 37 85 0 c47 0 85 -3 85 -6z m488 -54 l32 -55 -2 -285
-3 -285 -32 -3 -32 -3 -3 239 c-3 224 -4 241 -23 262 -62 69 -197 87 -290 40
-81 -42 -85 -56 -85 -317 l0 -223 -30 0 -30 0 0 298 0 297 30 48 30 47 203 -2
202 -3 33 -55z m176 48 c-33 -57 -46 -68 -84 -68 -33 0 -41 5 -59 36 -12 19
-21 37 -21 40 0 2 39 4 86 4 65 0 83 -3 78 -12z m486 -35 l30 -47 0 -298 0
-298 -35 0 -35 0 0 214 0 215 -94 65 c-52 36 -98 66 -101 66 -4 0 -49 -29
-101 -65 l-94 -66 0 -214 0 -215 -35 0 -35 0 0 294 0 295 31 50 32 51 204 0
203 0 30 -47z m130 7 c0 -39 -1 -40 -34 -40 -28 0 -38 6 -55 36 -12 19 -21 37
-21 40 0 2 25 4 55 4 l55 0 0 -40z m1890 20 c-34 -18 -68 -19 -942 -20 -901 0
-908 0 -908 20 0 20 7 20 943 20 934 -1 942 -1 907 -20z m-5788 -57 c-259 -2
-685 -2 -945 0 -259 1 -47 2 473 2 520 0 732 -1 472 -2z m5350 0 c-259 -2
-685 -2 -945 0 -259 1 -47 2 473 2 520 0 732 -1 472 -2z m-6862 -18 c0 -10 11
-15 35 -15 32 0 35 -2 35 -30 l0 -30 -965 0 -965 0 0 45 0 45 930 0 c820 0
930 -2 930 -15z m9290 -30 l0 -45 -965 0 -965 0 0 30 c0 28 3 30 35 30 24 0
35 5 35 15 0 13 110 15 930 15 l930 0 0 -45z m-7310 -25 l0 -40 -940 0 -940 0
0 40 0 40 940 0 940 0 0 -40z m5350 0 l0 -40 -937 2 -938 3 -3 38 -3 37 940 0
941 0 0 -40z m-5250 -875 l0 -905 -30 0 -30 0 0 905 0 905 30 0 30 0 0 -905z
m670 485 l0 -420 -30 0 -30 0 0 420 0 420 30 0 30 0 0 -420z m660 -1 l0 -420
-27 3 -28 3 -3 418 -2 417 30 0 30 0 0 -421z m670 1 l0 -420 -30 0 -30 0 0
420 0 420 30 0 30 0 0 -420z m660 0 l0 -420 -30 0 -30 0 0 420 0 420 30 0 30
0 0 -420z m670 -485 l0 -905 -30 0 -30 0 0 905 0 905 30 0 30 0 0 -905z
m-2298 865 c44 -13 93 -52 101 -80 5 -19 1 -20 -159 -20 -152 0 -164 1 -164
18 0 25 38 59 85 76 48 18 88 19 137 6z m1333 -1 c38 -11 105 -66 105 -88 0
-8 -52 -11 -165 -11 -157 0 -165 1 -165 19 0 22 49 63 95 79 40 14 82 14 130
1z m-1992 -51 l62 -43 -62 -3 c-34 -2 -92 -2 -128 0 l-65 3 62 43 c34 23 64
42 66 42 2 0 31 -19 65 -42z m1330 0 l60 -43 -67 -3 c-37 -2 -94 -2 -127 0
l-61 3 58 42 c33 22 63 42 67 42 5 1 36 -18 70 -41z m1328 0 l61 -43 -67 -3
c-36 -2 -93 -2 -126 0 l-61 3 59 42 c32 23 62 42 66 42 4 1 35 -18 68 -41z
m-6791 -43 l0 -55 -34 0 c-29 0 -37 6 -65 51 -17 28 -31 52 -31 55 0 2 29 4
65 4 l65 0 0 -55z m1570 -340 l0 -395 -35 0 -35 0 0 65 c0 63 -1 65 -25 65
l-25 0 0 265 0 265 -162 -2 -163 -3 -3 -262 c-2 -255 -3 -263 -22 -263 -18 0
-20 -7 -20 -65 l0 -65 -35 0 -35 0 0 65 c0 58 -2 65 -20 65 -19 0 -20 8 -22
263 l-3 262 -162 3 -163 2 0 -265 c0 -256 -1 -265 -20 -265 -16 0 -19 -8 -22
-62 -3 -63 -3 -63 -35 -66 l-33 -3 0 65 c0 64 -1 66 -25 66 l-25 0 0 265 0
265 -160 0 -160 0 -2 -262 -3 -263 -22 -3 c-21 -3 -23 -9 -23 -68 l0 -65 -37
3 -38 3 -3 380 c-1 209 0 386 3 392 3 10 166 13 770 13 l765 0 0 -395z m160
384 c0 -6 -14 -30 -30 -55 -25 -35 -37 -44 -60 -44 -30 0 -30 1 -30 55 l0 55
60 0 c36 0 60 -4 60 -11z m7450 -44 c0 -55 0 -55 -30 -55 -25 0 -35 8 -60 47
-17 26 -30 51 -30 55 0 4 27 8 60 8 l60 0 0 -55z m1578 -342 l2 -393 -40 0
-40 0 0 65 c0 58 -2 65 -20 65 -19 0 -20 8 -22 263 l-3 262 -162 3 -163 2 0
-265 0 -265 -25 0 c-24 0 -25 -2 -25 -65 l0 -65 -30 0 -30 0 0 65 c0 63 -1 65
-25 65 l-25 0 0 265 0 265 -160 0 -160 0 -2 -262 -3 -263 -22 -3 c-21 -3 -23
-9 -23 -68 l0 -64 -35 0 -35 0 0 65 c0 58 -2 65 -20 65 -19 0 -20 7 -20 265
l0 265 -162 -2 -163 -3 -3 -262 c-2 -255 -3 -263 -22 -263 -18 0 -20 -7 -20
-65 l0 -65 -40 0 -40 0 0 395 0 395 768 -2 767 -3 3 -392z m162 392 c0 -3 -14
-28 -31 -55 -28 -46 -35 -51 -63 -48 -28 3 -31 6 -34 42 -5 61 0 66 68 66 33
0 60 -2 60 -5z m-7260 -375 c0 -363 0 -370 -20 -370 -18 0 -20 7 -20 65 0 63
-1 65 -25 65 l-25 0 0 255 0 255 -160 0 -160 0 0 -255 0 -255 -25 0 c-24 0
-25 -2 -25 -66 l0 -65 -32 3 c-33 3 -33 3 -36 66 -3 54 -6 62 -22 62 -19 0
-20 9 -20 255 l0 255 -165 0 -165 0 0 -255 c0 -246 -1 -255 -20 -255 -16 0
-19 -8 -22 -62 -3 -63 -3 -63 -33 -63 -30 0 -30 0 -33 62 -3 55 -5 62 -25 65
-22 3 -22 4 -25 256 l-2 252 -160 0 -160 0 0 -255 0 -255 -25 0 c-24 0 -25 -2
-25 -65 l0 -65 -30 0 -30 0 0 65 c0 63 -1 65 -25 65 l-25 0 0 255 0 255 -160
0 -160 0 0 -255 0 -255 -25 0 c-24 0 -25 -2 -25 -65 0 -58 -2 -65 -20 -65 -20
0 -20 7 -20 318 l0 317 35 53 36 52 939 0 940 0 0 -370z m5388 316 l32 -54 0
-317 c0 -296 -1 -316 -17 -313 -15 3 -19 16 -21 65 -3 55 -5 62 -25 65 -22 3
-22 4 -25 256 l-2 252 -160 0 -160 0 0 -255 0 -255 -25 0 c-24 0 -25 -2 -25
-65 l0 -65 -30 0 -30 0 0 65 c0 63 -1 65 -25 65 l-25 0 0 255 0 255 -160 0
-160 0 0 -255 0 -255 -25 0 c-24 0 -25 -2 -25 -66 l0 -65 -32 3 c-33 3 -33 3
-36 66 -3 54 -6 62 -22 62 -19 0 -20 9 -20 255 l0 255 -165 0 -165 0 0 -255
c0 -246 -1 -255 -20 -255 -16 0 -19 -8 -22 -62 -3 -63 -3 -63 -33 -63 -30 0
-30 0 -33 62 -3 55 -5 62 -25 65 -22 3 -22 4 -25 256 l-2 252 -160 0 -160 0 0
-255 0 -255 -25 0 c-24 0 -25 -2 -25 -66 0 -57 -2 -65 -17 -62 -17 3 -18 30
-21 371 l-2 367 943 0 942 0 33 -54z m-4810 -228 l2 -198 -170 0 -170 0 0 193
c0 107 3 197 7 201 4 3 79 5 167 4 l161 -3 3 -197z m660 0 l2 -198 -170 0
-170 0 0 193 c0 107 3 197 7 201 4 3 79 5 167 4 l161 -3 3 -197z m662 2 l0
-200 -165 0 -165 0 0 200 0 200 165 0 165 0 0 -200z m668 -2 l2 -198 -165 0
-165 0 0 200 0 200 163 -2 162 -3 3 -197z m662 2 l0 -200 -165 0 -165 0 0 200
0 200 165 0 165 0 0 -200z m-6890 -175 l0 -325 -35 0 -35 0 0 318 c0 175 3
322 7 325 3 4 19 7 35 7 l28 0 0 -325z m1670 0 l0 -325 -30 0 -30 0 0 325 0
325 30 0 30 0 0 -325z m420 85 l0 -240 -130 0 -130 0 0 240 0 240 130 0 130 0
0 -240z m480 0 l0 -240 -130 0 -130 0 0 240 0 240 130 0 130 0 0 -240z m488 3
l-3 -238 -127 -3 -128 -3 0 241 0 240 130 0 130 0 -2 -237z m482 -3 l0 -240
-130 0 -130 0 0 240 0 240 130 0 130 0 0 -240z m3970 0 l0 -240 -130 0 -130 0
0 240 0 240 130 0 130 0 0 -240z m488 3 l-3 -238 -127 -3 -128 -3 0 241 0 240
130 0 130 0 -2 -237z m482 -3 l0 -240 -130 0 -130 0 0 240 0 240 130 0 130 0
0 -240z m480 0 l0 -240 -130 0 -130 0 0 240 0 240 130 0 130 0 0 -240z m220
-85 l0 -325 -30 0 -30 0 0 325 0 325 30 0 30 0 0 -325z m1680 0 l0 -325 -35 0
-35 0 0 318 c0 175 3 322 7 325 3 4 19 7 35 7 l28 0 0 -325z m-10410 50 l0
-245 -130 0 -130 0 0 245 0 245 130 0 130 0 0 -245z m480 0 l0 -245 -130 0
-130 0 0 245 0 245 130 0 130 0 0 -245z m480 0 l0 -245 -125 0 -125 0 0 245 0
245 125 0 125 0 0 -245z m8228 3 l-3 -243 -127 -3 -128 -3 0 246 0 245 130 0
130 0 -2 -242z m482 -3 l0 -245 -130 0 -130 0 0 245 0 245 130 0 130 0 0 -245z
m480 0 l0 -246 -127 3 -128 3 -3 243 -2 242 130 0 130 0 0 -245z m-6270 -225
l0 -120 -265 0 -265 0 0 113 c0 63 3 117 7 120 3 4 123 7 265 7 l258 0 0 -120z
m668 -2 l3 -118 -266 0 -265 0 0 120 0 120 263 -2 262 -3 3 -117z m662 2 l0
-120 -265 0 -265 0 0 120 0 120 265 0 265 0 0 -120z m665 0 l0 -115 -262 -3
-263 -2 0 120 0 120 263 -2 262 -3 0 -115z m665 0 l0 -120 -265 0 -265 0 0
120 0 120 265 0 265 0 0 -120z m-4860 -60 l0 -50 -170 0 -170 0 0 50 0 50 170
0 170 0 0 -50z m485 0 l0 -45 -172 -3 -173 -2 0 50 0 50 173 -2 172 -3 0 -45z
m483 3 l-3 -48 -170 0 -170 0 -3 33 c-6 63 -9 62 178 62 l171 0 -3 -47z m482
-3 l0 -50 -170 0 -170 0 0 50 0 50 170 0 170 0 0 -50z m3975 0 l0 -45 -172 -3
-173 -2 0 50 0 50 173 -2 172 -3 0 -45z m483 3 l-3 -48 -170 0 -170 0 -3 33
c-6 63 -9 62 178 62 l171 0 -3 -47z m482 -3 l0 -50 -170 0 -170 0 0 50 0 50
170 0 170 0 0 -50z m485 0 l0 -45 -172 -3 -173 -2 0 50 0 50 173 -2 172 -3 0
-45z m-8515 -40 l0 -50 -170 0 -170 0 0 50 0 50 170 0 170 0 0 -50z m490 0 l0
-50 -175 0 -175 0 0 50 0 50 175 0 175 0 0 -50z m480 0 l0 -50 -175 0 -175 0
0 50 0 50 175 0 175 0 0 -50z m8220 0 l0 -50 -175 0 -175 0 0 50 0 50 175 0
175 0 0 -50z m480 0 l0 -50 -172 2 -173 3 -3 33 c-6 63 -9 62 178 62 l170 0 0
-50z m488 -2 l3 -48 -175 0 -176 0 0 50 0 50 173 -2 172 -3 3 -47z m-6988
-103 l0 -65 -950 0 -950 0 0 59 c0 57 -1 60 -27 64 -16 2 412 5 950 6 l977 1
0 -65z m5398 58 c-27 -4 -28 -7 -28 -64 l0 -59 -950 0 -950 0 0 65 0 65 978
-1 c537 -1 965 -4 950 -6z m-2068 -73 l0 -60 -1595 0 -1595 0 0 60 0 60 1595
0 1595 0 0 -60z m-5260 -5 l0 -45 -955 0 -955 0 0 45 0 45 955 0 955 0 0 -45z
m9240 0 l0 -45 -952 2 -953 3 -3 43 -3 42 955 0 956 0 0 -45z m-10972 -447
l-3 -373 -30 0 -30 0 -3 373 -2 372 35 0 35 0 -2 -372z m1572 206 l0 -165 -52
3 c-47 3 -52 5 -59 32 -37 138 -301 138 -338 0 -7 -28 -10 -29 -73 -32 l-66
-3 -7 30 c-10 45 -74 98 -130 106 -97 15 -175 -19 -207 -92 l-19 -43 -58 0
-59 0 -23 48 c-39 77 -130 110 -231 82 -40 -12 -94 -66 -104 -106 -6 -23 -10
-25 -58 -22 l-51 3 -3 163 -2 162 770 0 770 0 0 -166z m100 -209 l0 -375 -30
0 -30 0 0 375 0 375 30 0 30 0 0 -375z m1990 210 l0 -165 -44 0 c-42 0 -45 2
-56 34 -44 134 -265 143 -329 13 l-24 -48 -55 3 c-52 3 -56 5 -63 32 -11 38
-36 65 -84 87 -99 46 -230 0 -254 -87 -7 -27 -11 -29 -63 -32 l-55 -3 -24 48
c-64 130 -285 121 -329 -13 -11 -33 -13 -34 -65 -34 l-53 0 -23 48 c-65 129
-285 120 -330 -15 -10 -31 -14 -33 -55 -33 l-44 0 0 165 0 165 975 0 975 0 0
-165z m5420 0 l0 -165 -44 0 c-41 0 -45 2 -51 29 -10 45 -74 98 -130 106 -97
15 -170 -17 -205 -90 -22 -45 -22 -45 -74 -45 -50 0 -52 1 -64 34 -49 136
-275 142 -334 9 -19 -43 -19 -43 -71 -43 -51 0 -53 1 -65 33 -49 135 -266 144
-331 15 l-23 -48 -53 0 c-52 0 -54 1 -65 34 -44 133 -265 143 -329 14 -22 -46
-25 -48 -67 -48 l-44 0 0 165 0 165 975 0 975 0 0 -165z m100 -210 l0 -375
-30 0 -30 0 0 375 0 375 30 0 30 0 0 -375z m1578 213 l-3 -163 -47 -3 c-46 -3
-47 -3 -70 44 -68 136 -298 122 -334 -20 -6 -25 -10 -26 -69 -26 l-63 0 -23
48 c-64 129 -285 119 -329 -14 -11 -34 -12 -34 -75 -34 -63 0 -64 0 -74 33
-45 135 -265 144 -330 15 -23 -47 -24 -48 -72 -48 l-49 0 0 165 0 165 770 0
770 0 -2 -162z m100 -210 l-3 -373 -30 0 -30 0 -3 373 -2 372 35 0 35 0 -2
-372z m-6528 -38 l0 -390 -25 0 c-23 0 -25 -3 -25 -50 0 -27 -4 -50 -10 -50
-6 0 -10 116 -10 328 0 300 -2 331 -19 369 -49 107 -206 136 -303 55 -60 -51
-62 -64 -66 -424 -2 -190 -8 -328 -13 -328 -5 0 -9 25 -9 55 0 52 -1 55 -25
55 l-25 0 0 385 0 385 265 0 265 0 0 -390z m100 0 l0 -390 -30 0 -30 0 0 390
0 390 30 0 30 0 0 -390z m568 3 l-3 -388 -22 -3 c-20 -3 -23 -9 -23 -53 0 -36
-4 -49 -15 -49 -12 0 -15 50 -17 343 l-3 344 -29 37 c-52 69 -152 94 -233 61
-48 -20 -71 -41 -94 -87 -18 -34 -19 -63 -19 -368 0 -213 -4 -330 -10 -330 -5
0 -10 23 -10 50 0 47 -2 50 -25 50 l-25 0 0 390 0 390 265 0 265 0 -2 -387z
m92 -4 l0 -390 -27 3 -28 3 -3 388 -2 387 30 0 30 0 0 -391z m570 1 c0 -383 0
-390 -20 -390 -17 0 -20 -7 -20 -50 0 -37 -4 -50 -14 -50 -13 0 -15 50 -18
333 -3 373 -2 367 -81 431 -35 28 -45 31 -111 31 -62 0 -78 -4 -113 -27 -24
-16 -49 -44 -62 -70 -20 -42 -21 -59 -21 -371 0 -211 -4 -327 -10 -327 -5 0
-10 23 -10 50 0 47 -2 50 -25 50 l-25 0 0 390 0 390 265 0 265 0 0 -390z m100
0 l0 -390 -30 0 -30 0 0 390 0 390 30 0 30 0 0 -390z m568 3 l-3 -388 -22 -3
c-20 -3 -23 -9 -23 -53 0 -27 -4 -49 -10 -49 -6 0 -10 107 -10 300 0 331 -6
384 -51 435 -88 100 -261 79 -318 -37 -20 -42 -21 -59 -21 -371 0 -284 -2
-327 -15 -327 -11 0 -15 12 -15 50 0 43 -3 50 -20 50 -20 0 -20 7 -20 390 l0
390 265 0 265 0 -2 -387z m92 -4 l0 -390 -27 3 -28 3 -3 388 -2 387 30 0 30 0
0 -391z m570 6 l0 -385 -25 0 c-24 0 -25 -3 -25 -55 0 -30 -4 -55 -9 -55 -6 0
-11 131 -13 333 -3 373 -2 367 -81 431 -36 28 -45 31 -111 31 -64 0 -78 -4
-114 -29 -23 -16 -50 -46 -62 -70 -19 -40 -20 -61 -20 -369 0 -211 -4 -327
-10 -327 -5 0 -10 23 -10 50 0 47 -2 50 -25 50 l-25 0 0 390 0 390 265 0 265
0 0 -385z m-2842 245 c18 -11 41 -34 52 -52 19 -31 20 -51 20 -360 l0 -328
-156 0 -155 0 3 329 c3 316 4 331 24 358 53 72 144 94 212 53z m660 0 c18 -11
41 -34 52 -52 19 -31 20 -51 20 -360 l0 -328 -150 0 -150 0 0 328 c0 309 1
329 20 360 28 45 76 72 130 72 27 0 58 -8 78 -20z m658 4 c18 -9 44 -33 56
-53 23 -35 23 -43 26 -363 l3 -328 -155 0 -156 0 0 323 c0 287 2 326 18 357
36 73 129 101 208 64z m700 -26 c21 -20 39 -51 44 -74 5 -21 10 -175 10 -341
l0 -303 -155 0 -155 0 0 328 c0 309 1 329 20 360 32 53 75 74 143 69 51 -3 63
-8 93 -39z m634 23 c19 -10 44 -34 55 -52 19 -32 20 -55 23 -361 l3 -328 -156
0 -156 0 3 334 c3 320 4 336 24 363 44 60 137 80 204 44z m-6399 -88 c56 -33
60 -57 57 -330 l-3 -248 -137 -3 -138 -3 0 265 0 264 26 31 c43 52 130 62 195
24z m486 1 c56 -36 58 -47 58 -324 l0 -255 -140 0 -140 0 0 262 0 262 30 31
c16 17 43 35 60 40 37 11 103 4 132 -16z m470 7 c71 -33 73 -44 73 -336 l0
-255 -140 0 -140 0 0 255 c0 292 2 303 73 336 23 10 53 19 67 19 14 0 44 -9
67 -19z m690 0 c71 -33 73 -44 73 -336 l0 -255 -140 0 -140 0 0 264 0 264 26
31 c42 51 112 63 181 32z m470 0 c71 -33 73 -44 73 -336 l0 -255 -140 0 -140
0 0 259 c0 252 1 259 23 292 38 57 112 72 184 40z m470 0 c71 -33 73 -44 73
-336 l0 -255 -140 0 -140 0 0 255 c0 292 2 303 73 336 23 10 53 19 67 19 14 0
44 -9 67 -19z m489 -7 c51 -34 54 -52 54 -329 l0 -255 -140 0 -140 0 0 255 c0
292 2 303 73 336 48 23 112 20 153 -7z m4014 -3 c47 -34 50 -49 50 -323 l0
-258 -140 0 -140 0 0 255 c0 292 2 303 73 336 50 23 118 19 157 -10z m432 19
c20 -6 48 -24 62 -41 l26 -31 0 -264 0 -265 -137 3 -138 3 -3 248 c-3 287 1
306 72 338 47 21 67 23 118 9z m505 -16 c56 -36 58 -47 58 -324 l0 -255 -140
0 -140 0 -3 235 c-2 129 0 249 3 266 7 39 47 81 89 94 38 11 104 4 133 -16z
m470 0 c56 -36 58 -47 58 -324 l0 -255 -140 0 -140 0 0 262 0 262 30 31 c16
17 43 35 60 40 37 11 103 4 132 -16z m655 16 c20 -6 48 -24 62 -41 l26 -31 0
-264 0 -265 -137 3 -138 3 -3 247 c-3 289 1 307 70 338 49 22 68 24 120 10z
m505 -9 c71 -33 73 -44 73 -336 l0 -255 -140 0 -140 0 0 264 0 264 26 31 c42
51 112 63 181 32z m503 -9 c56 -41 60 -64 58 -332 l-3 -245 -140 0 -140 0 -3
230 c-2 127 0 244 3 262 8 43 49 91 88 102 42 13 106 5 137 -17z m-8762 -349
c-3 -208 -5 -228 -20 -231 -15 -3 -18 4 -18 37 0 37 -2 41 -25 41 l-25 0 0
190 0 190 45 0 45 0 -2 -227z m472 -3 l0 -230 -55 0 -55 0 0 230 0 230 55 0
55 0 0 -230z m470 0 l0 -230 -55 0 -55 0 0 230 0 230 55 0 55 0 0 -230z m470
0 l0 -230 -55 0 -55 0 0 230 0 230 55 0 55 0 0 -230z m450 20 l0 -210 -25 0
c-18 0 -25 -5 -25 -20 0 -13 -7 -20 -20 -20 -19 0 -20 7 -20 230 l0 230 45 0
45 0 0 -210z m3560 -20 c0 -223 -1 -230 -20 -230 -13 0 -20 7 -20 20 0 15 -7
20 -25 20 l-25 0 0 210 0 210 45 0 45 0 0 -230z m470 -1 l0 -230 -52 3 -53 3
-3 228 -2 227 55 0 55 0 0 -231z m470 0 l0 -230 -52 3 -53 3 -3 228 -2 227 55
0 55 0 0 -231z m478 4 l-3 -228 -55 0 -55 0 -3 228 -2 227 60 0 60 0 -2 -227z
m442 37 l0 -190 -25 0 c-23 0 -25 -4 -25 -41 0 -33 -3 -40 -17 -37 -16 3 -18
23 -21 231 l-2 227 45 0 45 0 0 -190z m-8942 -57 l-3 -208 -25 0 c-22 0 -25 5
-28 37 -2 29 -8 37 -25 40 -22 3 -22 7 -25 171 l-2 167 55 0 55 0 -2 -207z
m490 0 l-3 -208 -62 -3 -63 -3 0 211 0 210 65 0 65 0 -2 -207z m482 -3 l0
-211 -62 3 -63 3 -3 208 -2 207 65 0 65 0 0 -210z m460 40 l0 -170 -25 0 c-22
0 -25 -4 -25 -40 0 -36 -2 -40 -25 -40 l-25 0 0 210 0 210 50 0 50 0 0 -170z
m7750 -40 l0 -210 -25 0 c-22 0 -25 4 -25 40 0 36 -2 40 -25 40 l-25 0 0 170
0 170 50 0 50 0 0 -210z m488 3 l-3 -208 -60 0 -60 0 -3 208 -2 207 65 0 65 0
-2 -207z m490 0 l-3 -208 -62 -3 -63 -3 0 211 0 210 65 0 65 0 -2 -207z m460
40 c-3 -164 -3 -168 -25 -171 -17 -3 -23 -11 -25 -40 -3 -32 -6 -37 -28 -37
l-25 0 -3 208 -2 207 55 0 55 0 -2 -167z m-10710 -225 c-3 -21 -9 -23 -80 -26
-78 -3 -78 -3 -78 23 0 25 1 25 81 25 78 0 80 -1 77 -22z m1672 -3 c0 -26 0
-26 -77 -23 -72 3 -78 5 -81 26 -3 21 -1 22 77 22 80 0 81 0 81 -25z m7510 0
c0 -26 0 -26 -77 -23 -72 3 -78 5 -81 26 -3 21 -1 22 77 22 80 0 81 0 81 -25z
m1678 3 c-3 -21 -9 -23 -80 -26 -78 -3 -78 -3 -78 23 0 25 1 25 81 25 78 0 80
-1 77 -22z m-7088 -48 l0 -30 -85 0 -85 0 0 30 0 30 85 0 85 0 0 -30z m3328
-2 l3 -28 -90 0 c-89 0 -91 1 -91 23 0 13 3 27 7 31 4 4 43 5 88 4 79 -3 80
-3 83 -30z m-2668 -3 c0 -25 -1 -25 -80 -25 -79 0 -80 0 -80 25 0 25 1 25 80
25 79 0 80 0 80 -25z m668 -2 c3 -22 1 -23 -82 -23 -77 0 -86 2 -86 18 0 30
10 33 90 30 69 -3 75 -5 78 -25z m662 2 c0 -25 -1 -25 -80 -25 -79 0 -80 0
-80 25 0 25 1 25 80 25 79 0 80 0 80 -25z m668 -2 c3 -22 1 -23 -82 -23 -85 0
-86 0 -86 25 0 26 0 26 83 23 76 -3 82 -5 85 -25z m-4758 -238 l0 -235 -945 0
-945 0 0 235 0 235 945 0 945 0 0 -235z m1890 208 c-1 -25 -10 -32 -88 -68
-204 -93 -325 -155 -304 -155 21 0 22 -3 22 -110 l0 -110 -740 0 -740 0 0 235
0 235 925 0 925 0 0 -27z m5420 -208 l0 -235 -740 0 -740 0 0 110 c0 107 1
110 23 110 20 1 -198 111 -335 170 -50 22 -58 29 -58 53 l0 27 925 0 925 0 0
-235z m1930 0 l0 -235 -945 0 -945 0 0 235 0 235 945 0 945 0 0 -235z m-7285
149 c-11 -8 -68 -42 -126 -74 -97 -55 -111 -60 -165 -59 l-59 0 150 74 c96 47
163 73 185 74 33 0 34 0 15 -15z m3640 -59 l150 -73 -59 -1 c-55 -1 -66 3
-182 70 -68 39 -124 72 -124 75 0 2 15 4 33 3 19 0 93 -30 182 -74z m-3885
-270 l0 -165 -80 0 -80 0 0 158 c0 87 3 162 7 165 3 4 39 7 80 7 l73 0 0 -165z
m4090 0 l0 -165 -75 0 -75 0 0 165 0 165 75 0 75 0 0 -165z"/>
<path d="M859 2641 c-45 -14 -68 -31 -84 -61 -31 -60 -30 -60 136 -60 l151 0
-7 28 c-18 72 -113 117 -196 93z"/>
<path d="M1335 2635 c-45 -16 -85 -59 -85 -92 0 -23 1 -23 145 -23 l145 0 0
26 c0 34 -47 79 -96 93 -49 14 -60 13 -109 -4z"/>
<path d="M1835 2635 c-48 -17 -85 -57 -85 -91 l0 -24 145 0 c159 0 161 1 130
60 -29 55 -119 81 -190 55z"/>
<path d="M2575 2635 c-48 -17 -85 -57 -85 -91 l0 -24 145 0 145 0 0 26 c0 34
-47 79 -96 93 -49 14 -60 13 -109 -4z"/>
<path d="M3065 2635 c-48 -17 -85 -57 -85 -91 l0 -24 145 0 145 0 0 24 c0 33
-49 82 -96 95 -49 14 -60 13 -109 -4z"/>
<path d="M3564 2639 c-37 -11 -94 -71 -94 -99 0 -19 8 -20 150 -20 142 0 150
1 150 20 0 30 -57 88 -98 100 -43 12 -66 12 -108 -1z"/>
<path d="M8316 2636 c-47 -18 -81 -51 -90 -88 l-6 -28 150 0 c165 0 166 0 135
60 -28 55 -119 81 -189 56z"/>
<path d="M8819 2640 c-40 -12 -75 -38 -87 -66 -25 -54 -24 -54 139 -54 l151 0
-7 28 c-18 72 -113 117 -196 92z"/>
<path d="M9309 2641 c-45 -14 -68 -31 -84 -61 -31 -60 -30 -60 135 -60 l150 0
-6 28 c-10 41 -51 79 -99 91 -49 12 -59 13 -96 2z"/>
<path d="M10049 2640 c-40 -12 -75 -38 -87 -66 -25 -54 -24 -54 139 -54 l151
0 -7 28 c-18 72 -113 117 -196 92z"/>
<path d="M10535 2635 c-48 -17 -85 -57 -85 -91 l0 -24 145 0 145 0 0 26 c0 34
-47 79 -96 93 -49 14 -60 13 -109 -4z"/>
<path d="M11025 2635 c-48 -17 -85 -57 -85 -91 l0 -24 145 0 145 0 0 26 c0 34
-47 79 -96 93 -49 14 -60 13 -109 -4z"/>
<path d="M4321 2599 c-6 -18 -11 -36 -11 -40 0 -5 758 -9 1685 -9 1457 0 1685
2 1685 14 0 8 -4 26 -10 40 l-10 26 -1664 0 -1664 0 -11 -31z"/>
<path d="M4243 2435 c-13 -19 -23 -37 -23 -40 0 -3 799 -5 1775 -5 976 0 1775
2 1775 4 0 3 -9 21 -21 40 l-21 36 -1731 0 -1732 0 -22 -35z"/>
<path d="M1894 1181 c-34 -10 -81 -29 -106 -44 -209 -122 -250 -504 -74 -696
21 -23 93 -64 231 -131 110 -53 230 -115 268 -138 37 -23 71 -42 77 -42 19 0
182 110 169 114 -72 21 -229 80 -229 85 0 3 22 14 48 23 107 38 186 118 222
224 29 83 36 201 16 293 -37 173 -121 266 -285 315 -75 22 -255 21 -337 -3z
m259 -85 c45 -18 91 -75 113 -138 15 -42 19 -83 19 -203 0 -143 -1 -153 -28
-210 -49 -104 -93 -135 -192 -135 -101 0 -153 39 -196 147 -20 51 -23 75 -23
203 0 127 3 152 22 202 30 74 56 106 106 129 48 22 133 25 179 5z"/>
<path d="M4868 1185 c-195 -53 -298 -199 -298 -420 1 -311 186 -476 508 -451
181 14 302 84 366 212 38 76 49 143 44 270 -4 105 -7 117 -41 187 -53 107
-132 170 -252 201 -72 19 -259 20 -327 1z m280 -107 c84 -56 128 -225 105
-408 -20 -159 -76 -240 -176 -259 -177 -33 -270 88 -270 349 0 143 20 222 71
281 48 56 82 70 163 66 52 -2 75 -8 107 -29z"/>
<path d="M7933 1185 c-116 -32 -213 -108 -258 -199 -55 -112 -57 -305 -5 -441
31 -81 113 -164 193 -193 124 -47 288 -52 414 -14 l58 18 3 73 3 73 -43 -29
c-65 -44 -107 -58 -173 -57 -93 1 -174 54 -219 142 -46 90 -48 297 -4 393 28
62 78 116 125 135 77 33 202 12 284 -47 l29 -20 0 74 0 74 -37 13 c-58 19
-306 23 -370 5z"/>
<path d="M9071 1184 c-123 -33 -200 -98 -254 -212 -27 -58 -31 -79 -35 -175
-7 -172 22 -270 108 -361 87 -92 228 -136 392 -122 264 22 401 156 415 407 14
250 -89 408 -302 465 -66 18 -255 17 -324 -2z m246 -85 c37 -14 81 -56 104
-101 29 -57 40 -124 40 -245 1 -120 -16 -201 -53 -261 -61 -99 -239 -115 -316
-27 -96 109 -110 415 -24 555 47 77 160 113 249 79z"/>
<path d="M320 1177 c0 -10 -244 -680 -295 -809 l-15 -38 55 0 c36 0 57 4 60
12 2 7 21 61 42 120 l38 108 151 0 150 0 38 -107 c20 -60 39 -114 41 -120 3
-10 39 -13 131 -13 100 0 124 3 116 13 -7 9 -295 766 -317 835 -6 17 -195 17
-195 -1z m98 -359 l51 -148 -114 0 -114 0 23 63 c13 34 38 104 56 155 18 51
36 90 40 85 4 -4 30 -74 58 -155z"/>
<path d="M888 761 l2 -431 115 0 115 0 2 185 3 186 90 -162 c50 -90 94 -173
98 -186 8 -22 12 -23 138 -23 71 0 129 2 129 4 0 2 -53 87 -118 187 -65 101
-121 189 -125 195 -4 7 18 24 59 44 93 45 119 88 119 190 0 68 -3 82 -30 126
-24 37 -45 56 -90 79 l-58 30 -226 3 -226 3 3 -430z m346 318 c40 -32 56 -71
56 -141 0 -100 -51 -158 -140 -158 l-30 0 0 160 0 160 44 0 c29 0 52 -7 70
-21z"/>
<path d="M2630 862 l5 -328 30 -59 c59 -115 195 -174 370 -161 100 7 169 27
225 65 48 32 95 97 110 150 5 20 11 177 12 349 l3 312 -52 0 -52 0 -3 -323 -3
-324 -28 -42 c-38 -57 -96 -83 -188 -83 -118 0 -191 59 -204 165 -3 29 -5 177
-3 330 l3 277 -115 0 -115 0 5 -328z"/>
<path d="M3525 760 l0 -430 115 0 115 0 0 430 0 430 -115 0 -115 0 0 -430z"/>
<path d="M3795 1173 c24 -60 275 -815 275 -828 0 -12 18 -15 108 -15 l107 1
63 192 c35 106 101 299 146 430 l82 237 -58 0 c-47 0 -58 -3 -58 -17 0 -15
-195 -583 -210 -612 -7 -14 -210 576 -210 612 0 15 -13 17 -126 17 -116 0
-126 -1 -119 -17z"/>
<path d="M5985 760 l0 -430 52 0 53 0 2 301 3 300 230 -300 230 -301 95 0 95
0 0 430 0 430 -52 0 -53 0 -2 -302 -3 -301 -230 301 -230 302 -95 0 -95 0 0
-430z"/>
<path d="M7105 1178 c-15 -48 -297 -814 -306 -829 -9 -18 -6 -19 51 -19 41 0
60 4 60 13 0 6 18 59 39 117 l39 105 150 3 150 3 20 -53 c10 -29 30 -83 43
-120 l24 -68 123 0 c114 0 122 1 113 18 -15 28 -311 819 -311 831 0 16 -189
15 -195 -1z m89 -341 c27 -78 51 -148 54 -154 3 -10 -23 -13 -108 -13 -85 0
-111 3 -108 13 10 39 103 297 108 297 3 0 27 -64 54 -143z"/>
<path d="M8435 760 l0 -430 115 0 115 0 0 430 0 430 -115 0 -115 0 0 -430z"/>
<path d="M9805 760 l0 -430 52 0 53 0 2 300 3 300 230 -300 230 -300 95 0 95
0 0 430 0 430 -55 0 -55 0 3 -302 c2 -263 1 -301 -12 -288 -18 19 -410 532
-432 565 -16 24 -21 25 -113 25 l-96 0 0 -430z"/>
<path d="M10925 1178 c-17 -52 -299 -817 -306 -830 -9 -16 -4 -18 51 -18 44 0
60 4 60 14 0 7 18 60 39 117 l39 104 150 3 150 3 30 -83 c16 -46 35 -100 41
-120 l13 -38 124 0 c117 0 124 1 115 18 -16 30 -311 817 -311 830 0 17 -189
17 -195 0z m89 -341 c27 -78 51 -148 54 -154 3 -10 -22 -13 -107 -13 -61 0
-111 3 -111 7 0 14 105 303 110 303 3 0 27 -64 54 -143z"/>
<path d="M11490 760 l0 -430 255 0 255 0 0 48 0 47 -140 -3 -140 -4 0 386 0
386 -115 0 -115 0 0 -430z"/>
</g>
</svg>
